<svg width="400" height="401" viewBox="0 0 400 401" fill="none" xmlns="http://www.w3.org/2000/svg">
<path d="M394.408 0.861847H5.58554C4.10455 0.863811 2.6846 1.72156 1.6374 3.24677C0.590194 4.77197 0.0013009 6.84 0 8.99694V392.727C0.00129921 394.884 0.590194 396.952 1.6374 398.477C2.6846 400.002 4.10455 400.86 5.58554 400.862H394.408C395.215 400.862 396.013 400.607 396.747 400.114C397.48 399.621 398.131 398.902 398.655 398.007C398.699 397.937 398.74 397.862 398.777 397.783C399.11 397.189 399.38 396.526 399.577 395.815C399.858 394.837 400.002 393.787 400 392.727V8.99699C399.998 6.83853 399.408 4.76928 398.36 3.24389C397.311 1.7185 395.89 0.861725 394.408 0.861847V0.861847ZM398.405 392.727C398.406 393.862 398.176 394.972 397.745 395.917C397.362 396.75 396.843 397.43 396.233 397.895C395.669 398.32 395.043 398.541 394.408 398.539H5.58554C4.52753 398.537 3.51322 397.924 2.76509 396.834C2.01696 395.745 1.59611 394.268 1.59482 392.727V8.99699C1.5961 7.45609 2.01696 5.97882 2.76509 4.88923C3.51322 3.79965 4.52753 3.18669 5.58554 3.18482H394.408C395.467 3.18462 396.483 3.79663 397.232 4.88639C397.982 5.97615 398.403 7.45458 398.405 8.99699V392.727Z" fill="#3F3D56"/>
<path d="M399.199 33.4668H0.796021V35.7924H399.199V33.4668Z" fill="#3F3D56"/>
<path d="M14.3688 25.2807C17.0145 25.2807 19.1593 22.157 19.1593 18.3039C19.1593 14.4507 17.0145 11.3271 14.3688 11.3271C11.7232 11.3271 9.57843 14.4507 9.57843 18.3039C9.57843 22.157 11.7232 25.2807 14.3688 25.2807Z" fill="#3F3D56"/>
<path d="M28.1413 25.2807C30.787 25.2807 32.9317 22.157 32.9317 18.3039C32.9317 14.4507 30.787 11.3271 28.1413 11.3271C25.4956 11.3271 23.3509 14.4507 23.3509 18.3039C23.3509 22.157 25.4956 25.2807 28.1413 25.2807Z" fill="#3F3D56"/>
<path d="M41.9138 25.2807C44.5594 25.2807 46.7042 22.157 46.7042 18.3039C46.7042 14.4507 44.5594 11.3271 41.9138 11.3271C39.2681 11.3271 37.1234 14.4507 37.1234 18.3039C37.1234 22.157 39.2681 25.2807 41.9138 25.2807Z" fill="#3F3D56"/>
<path d="M177.422 231.172C172.631 226.63 170.248 216.074 171.421 206.421C172.595 196.767 177.016 188.452 182.316 184.866C184.894 183.174 187.72 182.441 190.541 182.733C193.362 183.025 196.088 184.333 198.476 186.539C203.336 190.867 210.209 193.238 212.517 201.897C214.291 208.552 212.041 222.065 209.654 228.528C207.591 234.115 203.671 236.67 199.987 237.78C195.912 238.991 191.706 238.912 187.654 237.55C183.602 236.189 179.797 233.575 176.498 229.887L177.422 231.172Z" fill="#2F2E41"/>
<path d="M174.923 282.446L171.092 292.065L170.586 293.333L169.849 295.199H158.556L159.319 293.333L161.291 288.492L165.891 277.185L171.099 280.217L174.923 282.446Z" fill="#FFB8B8"/>
<path d="M157.711 295.199L155.648 293.333L155.392 293.1L168.338 258.74C168.894 257.253 169.648 255.942 170.555 254.881C171.462 253.821 172.505 253.034 173.622 252.564C175.033 251.952 176.527 251.872 177.965 252.331C178.804 252.589 179.612 253.029 180.361 253.637C180.669 253.883 180.967 254.158 181.251 254.458C182.346 255.576 183.246 257.052 183.878 258.768C184.63 260.777 185.002 263.041 184.954 265.329C184.907 267.616 184.443 269.843 183.609 271.783L178.619 283.398L174.353 293.333L173.552 295.199H157.711V295.199Z" fill="#2F2E41"/>
<path d="M190.971 243.367C199.66 243.367 206.704 233.108 206.704 220.454C206.704 207.799 199.66 197.54 190.971 197.54C182.282 197.54 175.238 207.799 175.238 220.454C175.238 233.108 182.282 243.367 190.971 243.367Z" fill="#FFB8B8"/>
<path d="M206.765 295.199H171.4L171.56 294.537C171.47 294.135 171.387 293.734 171.31 293.333C171.227 292.913 171.156 292.484 171.092 292.064C170.518 288.159 170.52 284.12 171.098 280.216C173.052 266.241 180.848 254.887 180.848 254.887C180.983 254.738 181.117 254.598 181.251 254.458C182.411 253.222 183.669 252.194 184.999 251.398C190.79 247.9 196.862 249.309 200.942 251.118C202.363 251.744 203.752 252.514 205.1 253.423C205.574 253.749 205.83 253.955 205.83 253.955L206.233 271.876L206.72 293.333L206.765 295.199Z" fill="#F75205"/>
<path d="M223.125 293.333L220.422 273.313L217.693 253.124C217.579 252.29 217.295 251.526 216.878 250.932C216.461 250.337 215.93 249.941 215.355 249.794L209.641 248.357L204.325 247.023C203.812 246.888 203.283 246.961 202.797 247.232C202.31 247.503 201.884 247.963 201.564 248.562C201.164 249.287 200.945 250.189 200.942 251.118C200.942 251.693 201.023 252.261 201.179 252.788C203.953 262.211 204.004 277.128 203.3 293.333C203.268 293.949 203.242 294.574 203.21 295.199H223.381L223.125 293.333Z" fill="#2F2E41"/>
<path d="M184.999 251.398C184.881 250.719 184.649 250.094 184.325 249.578C184 249.061 183.592 248.671 183.138 248.442C182.683 248.212 182.197 248.151 181.722 248.263C181.248 248.375 180.8 248.658 180.419 249.085L177.965 252.331L167.921 265.653C167.608 266.062 167.363 266.57 167.204 267.137C166.07 271.083 163.86 278.873 161.291 288.491C160.875 290.059 160.446 291.673 160.004 293.333C159.85 293.949 159.684 294.574 159.517 295.199H176.069C176.204 294.574 176.338 293.949 176.473 293.333C177.209 289.947 177.927 286.625 178.619 283.397C180.643 274.022 182.468 265.504 183.878 258.768C184.269 256.902 184.625 255.18 184.948 253.6C185.098 252.886 185.116 252.126 184.999 251.398V251.398Z" fill="#2F2E41"/>
<path d="M226.84 295.199H227.91L227.763 294.677L227.372 293.333L221.344 272.501L220.422 273.313L213.017 279.834L216.816 293.333L217.341 295.199H223.381H226.84Z" fill="#FFB8B8"/>
<path d="M220.729 255.979C219.914 252.87 218.304 250.341 216.238 248.92C214.171 247.499 211.808 247.298 209.641 248.357C209.364 248.491 209.093 248.646 208.828 248.823C207.31 249.809 206.017 251.405 205.1 253.423C204.725 254.228 204.418 255.096 204.184 256.007C203.768 257.588 203.571 259.274 203.606 260.966C203.64 262.659 203.904 264.325 204.382 265.868L206.234 271.876L212.857 293.333L213.433 295.199H226.84L227.763 294.677L230.159 293.333L230.492 293.147L220.729 255.979Z" fill="#2F2E41"/>
<path d="M203.328 194.137C203.876 194.377 204.464 194.346 204.999 194.05C205.534 193.754 205.987 193.21 206.289 192.501C206.574 191.778 206.742 190.97 206.779 190.138C206.817 189.306 206.723 188.473 206.505 187.702C206.059 186.164 205.355 184.812 204.459 183.771C203.44 182.428 202.201 181.494 200.86 181.057C200.191 180.847 199.498 180.85 198.829 181.064C198.16 181.278 197.531 181.699 196.983 182.299C196.446 182.918 196.047 183.757 195.839 184.708C195.63 185.659 195.622 186.679 195.813 187.637C196.221 189.358 197.324 190.511 198.426 191.369C200.613 193.069 203.023 194.067 205.497 194.297L203.328 194.137Z" fill="#2F2E41"/>
<path d="M206.389 219.769C203.859 220.277 204.184 218.402 203.171 214.989C202.158 211.575 200.802 207.523 198.26 207.177C196.176 206.894 194.46 209.32 192.772 211.121C189.764 214.331 185.709 215.903 182.222 213.977C178.735 212.051 176.312 205.998 177.635 200.92C178.047 199.517 178.652 198.253 179.413 197.205C180.174 196.158 181.075 195.349 182.059 194.828C184.034 193.806 186.131 193.381 188.223 193.581C192.874 193.798 197.437 195.499 201.588 198.564C204.452 200.684 207.241 203.717 208.328 208.121C209.415 212.525 210.13 218.714 207.022 219.905L206.389 219.769Z" fill="#2F2E41"/>
<path d="M202.035 182.024C200.785 178.854 201.817 174.505 203.862 172.388C205.908 170.27 208.652 170.062 211.093 170.911C213.507 171.797 215.719 173.592 217.507 176.115C219.295 178.639 220.595 181.802 221.278 185.289C222.314 190.832 221.698 196.785 222.576 202.385C223.043 205.371 223.926 208.185 225.168 210.655C226.411 213.125 227.988 215.199 229.801 216.748C231.615 218.297 233.627 219.289 235.714 219.663C237.801 220.037 239.918 219.785 241.935 218.922C244.563 217.798 247.233 215.066 247.491 211.095C247.763 215.655 247.05 220.224 245.45 224.164C243.85 228.103 241.444 231.215 238.57 233.065C235.184 235.121 231.408 235.255 227.741 235.118C225.351 235.029 222.907 234.82 220.703 233.473C219.177 232.46 217.806 231.014 216.67 229.219C215.533 227.424 214.654 225.317 214.083 223.021C212.961 218.406 212.658 213.452 213.202 208.621C213.563 204.863 214.281 201.179 214.482 197.396C214.682 193.613 214.301 189.573 212.7 186.58C211.099 183.587 208.039 182.058 205.762 183.902C204.847 184.644 204.109 185.855 203.115 186.333C202.121 186.811 200.711 185.971 200.802 184.451L202.035 182.024Z" fill="#2F2E41"/>
<path d="M309.396 295.199L309.518 293.333L313.131 238.589C314.315 237.239 315.587 236.061 316.929 235.072C324.366 229.614 331.541 232.227 335.422 234.484C336.451 235.071 337.445 235.779 338.394 236.602L340.509 293.333L340.579 295.199H309.396Z" fill="#F75205"/>
<path d="M326.315 224.02C335.004 224.02 342.048 213.761 342.048 201.106C342.048 188.451 335.004 178.192 326.315 178.192C317.626 178.192 310.582 188.451 310.582 201.106C310.582 213.761 317.626 224.02 326.315 224.02Z" fill="#FFB8B8"/>
<path d="M339.081 215.077C340.25 213.282 341.026 211.021 341.311 208.582C341.596 206.142 341.375 203.635 340.679 201.378C339.982 199.121 338.84 197.217 337.398 195.908C335.957 194.599 334.28 193.944 332.582 194.027C330.406 194.133 328.356 195.429 326.28 196.381C323.133 197.94 319.776 198.38 316.489 197.665C313.182 196.917 310.198 194.351 308.151 190.495C306.205 186.599 305.598 181.194 306.973 176.812C308.56 171.752 312.269 168.964 315.757 166.699C317.164 165.673 318.667 164.954 320.217 164.565C320.994 164.377 321.789 164.425 322.552 164.705C323.316 164.985 324.031 165.492 324.654 166.194C325.634 167.422 326.209 169.267 327.276 170.332C328.476 171.53 330.036 171.498 331.485 171.709C334.747 172.185 337.832 174.096 340.331 177.188C342.829 180.279 344.622 184.406 345.471 189.018C346.32 193.63 346.185 198.509 345.083 203.007C343.982 207.504 341.966 211.406 339.304 214.195L339.081 215.077Z" fill="#2F2E41"/>
<path d="M319.274 244.551L316.929 235.072L316.783 234.481C316.714 234.201 316.601 233.948 316.455 233.74C316.308 233.532 316.131 233.376 315.937 233.283C315.743 233.19 315.536 233.162 315.334 233.202C315.131 233.242 314.938 233.349 314.767 233.514L312.106 236.098C312.106 236.098 295.035 236.098 293.664 251.016C293.645 251.249 293.619 251.51 293.6 251.79C293.599 251.803 293.597 251.815 293.593 251.827C293.421 252.807 290.199 270.943 287.431 293.333C287.355 293.949 287.278 294.574 287.201 295.199H324.296V295.199C325.503 272.707 324.828 251.795 319.274 244.551Z" fill="#2F2E41"/>
<path d="M363.524 293.333C361.5 270.365 358.604 251.79 358.604 251.79C358.579 251.51 358.553 251.249 358.534 251.016C357.169 236.098 340.098 236.098 340.098 236.098L337.438 233.515C337.268 233.35 337.074 233.244 336.872 233.204C336.669 233.164 336.462 233.191 336.268 233.285C336.074 233.378 335.897 233.535 335.75 233.742C335.604 233.95 335.491 234.204 335.422 234.484L332.931 244.551C327.377 251.795 326.701 272.707 327.908 295.198L327.909 295.199H363.684C363.633 294.574 363.575 293.949 363.524 293.333Z" fill="#2F2E41"/>
<path d="M63.048 241.033L59.2431 293.333L59.1086 295.199H48.8149C48.9365 294.593 49.0582 293.967 49.1865 293.333C52.1075 278.742 56.0853 257.444 55.6559 251.799C54.9834 242.993 59.6916 240.054 59.6916 240.054L59.9863 240.138L63.048 241.033Z" fill="#F75205"/>
<path d="M79.6494 224.891C88.3385 224.891 95.3823 214.632 95.3823 201.977C95.3823 189.322 88.3385 179.064 79.6494 179.064C70.9604 179.064 63.9165 189.322 63.9165 201.977C63.9165 214.632 70.9604 224.891 79.6494 224.891Z" fill="#A0616A"/>
<path d="M100.015 284.097C99.2216 286.227 98.5716 288.464 98.0742 290.777C97.8884 291.598 97.7092 292.456 97.5425 293.333C97.4208 293.94 97.312 294.565 97.2031 295.199H55.7072C55.765 294.583 55.816 293.958 55.8739 293.333C57.9942 268.937 59.7107 244.177 59.9862 240.138C60.0119 239.755 60.0247 239.559 60.0247 239.559C84.8913 220.472 103.039 245.437 103.039 245.437C103.039 245.437 103.064 245.614 103.103 245.959C103.5 249.448 105.524 269.823 100.015 284.097Z" fill="#F75205"/>
<path d="M98.0742 290.777L95.3071 282.138L95.9795 247.881L103.103 245.959L103.353 245.894C107.034 249.011 109.883 253.851 111.436 259.627C112.82 264.664 115.453 279.815 117.676 293.333C117.778 293.958 117.88 294.583 117.983 295.199H99.4898L98.894 293.333L98.0742 290.777Z" fill="#F75205"/>
<path d="M123.383 141.267H32.4102C30.4588 141.27 28.5881 142.401 27.2083 144.41C25.8285 146.42 25.0523 149.144 25.0499 151.986V284.48C25.0523 287.322 25.8285 290.046 27.2083 292.056C28.5881 294.065 30.4588 295.196 32.4102 295.199H123.383C125.335 295.197 127.206 294.067 128.586 292.057C129.966 290.047 130.742 287.322 130.743 284.48V151.986C130.742 149.144 129.966 146.418 128.586 144.408C127.206 142.399 125.335 141.269 123.383 141.267ZM129.462 284.48C129.461 286.827 128.82 289.078 127.68 290.738C126.54 292.398 124.995 293.331 123.383 293.333H32.4102C30.7986 293.33 29.2538 292.396 28.1143 290.736C26.9748 289.077 26.3335 286.827 26.3311 284.48V151.986C26.3335 149.639 26.9748 147.389 28.1143 145.73C29.2538 144.07 30.7986 143.136 32.4102 143.133H123.383C124.995 143.135 126.54 144.068 127.68 145.728C128.82 147.388 129.461 149.639 129.462 151.986V284.48ZM59.2432 293.333L59.1086 295.199H97.2031C97.312 294.565 97.4208 293.94 97.5425 293.333H59.2432Z" fill="#3F3D56"/>
<path d="M245.481 141.267H154.508C152.557 141.27 150.686 142.401 149.306 144.41C147.926 146.42 147.15 149.144 147.148 151.986V284.48C147.15 287.322 147.926 290.046 149.306 292.056C150.686 294.065 152.557 295.196 154.508 295.199H245.481C247.432 295.197 249.304 294.067 250.684 292.057C252.064 290.047 252.84 287.322 252.841 284.48V151.986C252.84 149.144 252.064 146.418 250.684 144.408C249.304 142.399 247.432 141.269 245.481 141.267V141.267ZM251.56 284.48C251.558 286.827 250.917 289.078 249.778 290.738C248.638 292.398 247.093 293.331 245.481 293.333H154.508C152.896 293.33 151.352 292.396 150.212 290.736C149.073 289.077 148.431 286.827 148.429 284.48V151.986C148.431 149.639 149.073 147.389 150.212 145.73C151.352 144.07 152.896 143.136 154.508 143.133H245.481C247.093 143.135 248.638 144.068 249.778 145.728C250.917 147.388 251.558 149.639 251.56 151.986V284.48ZM171.31 293.333C171.387 293.734 171.47 294.135 171.56 294.537L171.4 295.199H203.21C203.242 294.574 203.268 293.949 203.3 293.333H171.31Z" fill="#3F3D56"/>
<path d="M367.585 141.267H276.612C274.661 141.268 272.789 142.398 271.409 144.408C270.029 146.418 269.253 149.144 269.252 151.986V284.48C269.253 287.322 270.029 290.048 271.409 292.057C272.789 294.067 274.661 295.197 276.612 295.199H367.585C369.536 295.196 371.407 294.065 372.787 292.056C374.167 290.046 374.943 287.322 374.945 284.48V151.986C374.943 149.144 374.167 146.42 372.787 144.41C371.407 142.401 369.536 141.27 367.585 141.267ZM373.664 284.48C373.662 286.827 373.02 289.077 371.881 290.736C370.741 292.396 369.197 293.33 367.585 293.333H276.612C275 293.331 273.455 292.398 272.315 290.738C271.175 289.078 270.535 286.827 270.533 284.48V151.986C270.535 149.639 271.175 147.388 272.315 145.728C273.455 144.068 275 143.134 276.612 143.133H367.585C369.197 143.136 370.741 144.07 371.881 145.73C373.02 147.389 373.662 149.639 373.664 151.986V284.48ZM324.392 293.333C324.36 293.949 324.328 294.574 324.296 295.199H351.898C351.949 294.583 352.006 293.958 352.058 293.333H324.392Z" fill="#3F3D56"/>
<path d="M305.691 349.308H94.3044C92.9453 349.308 91.6419 348.522 90.6809 347.123C89.7198 345.723 89.1799 343.825 89.1799 341.845C89.1799 339.866 89.7198 337.967 90.6809 336.568C91.6419 335.168 92.9453 334.382 94.3044 334.382H305.691C307.05 334.382 308.353 335.168 309.314 336.568C310.275 337.967 310.815 339.866 310.815 341.845C310.815 343.825 310.275 345.723 309.314 347.123C308.353 348.522 307.05 349.308 305.691 349.308Z" fill="#CCCCCC"/>
<path d="M246.438 102.084H153.557C152.198 102.084 150.894 101.298 149.933 99.898C148.972 98.4983 148.432 96.6 148.432 94.6205C148.432 92.6411 148.972 90.7428 149.933 89.3432C150.894 87.9435 152.198 87.1572 153.557 87.1572H246.438C247.798 87.1572 249.101 87.9435 250.062 89.3432C251.023 90.7428 251.563 92.6411 251.563 94.6205C251.563 96.6 251.023 98.4983 250.062 99.898C249.101 101.298 247.798 102.084 246.438 102.084Z" fill="#F75205"/>
<path d="M87.1748 221.94C87.7075 222.705 88.4119 223.165 89.1586 223.235C89.9054 223.304 90.6443 222.979 91.2397 222.32C94.9476 218.316 98.2029 213.334 100.129 207.256C102.337 200.292 102.583 191.746 99.9215 185.127C97.6717 179.531 93.6988 175.921 89.7392 172.956C88.2018 171.692 86.5458 170.762 84.8237 170.197C83.0831 169.637 81.2616 170.065 79.7302 171.393C78.981 172.078 78.3907 173.075 78.0364 174.255C77.6821 175.435 77.5802 176.743 77.7441 178.009C75.8421 174.848 73.4061 172.467 70.6774 171.1C68.9592 170.121 67.0777 169.922 65.2805 170.53C62.7678 171.568 60.9334 174.819 59.9301 178.331C59.1187 181.003 58.8386 183.952 59.1215 186.844C59.2703 188.283 59.625 189.661 60.1624 190.888C60.6998 192.115 61.4081 193.163 62.2414 193.967C64.3188 195.839 66.9691 195.704 69.3549 194.939C71.7407 194.174 74.0501 192.844 76.4821 192.508C78.9141 192.171 81.6222 193.054 83.1023 195.885C84.1446 197.878 84.4122 200.483 84.6462 202.965L85.8631 215.876C85.9626 217.743 86.2902 219.57 86.8303 221.27C86.9239 221.515 87.0397 221.741 87.1748 221.94Z" fill="#2F2E41"/>
</svg>
